<svg width="105" height="35" viewBox="0 0 105 35" fill="none" xmlns="http://www.w3.org/2000/svg">
<path d="M24.6913 18.5978C24.6484 14.1689 28.3689 12.0411 28.5363 11.9397C26.4422 8.92949 23.1893 8.51574 22.0307 8.4693C19.2628 8.19065 16.6279 10.0736 15.2204 10.0736C13.8128 10.0736 11.6457 8.50729 9.34984 8.55374C6.32876 8.59595 3.5437 10.2805 1.98595 12.9403C-1.14671 18.2853 1.18777 26.2226 4.24747 30.567C5.74514 32.6907 7.52175 35.0845 9.8648 34.9958C12.122 34.9072 12.9717 33.5604 15.6924 33.5604C18.4131 33.5604 19.1812 34.9958 21.5629 34.9536C23.9875 34.9072 25.5238 32.7835 27.0086 30.6514C28.7165 28.1816 29.4246 25.7962 29.4675 25.6695C29.4117 25.6484 24.7428 23.8879 24.6913 18.5978Z" fill="#9CA3AF"/>
<path d="M20.2152 5.58987C21.4597 4.10796 22.2965 2.05187 22.0691 0C20.2796 0.0717732 18.1125 1.1737 16.8294 2.65561C15.6793 3.96442 14.6709 6.0585 14.9455 8.06815C16.9324 8.22014 18.975 7.06755 20.2152 5.58987ZM40.3844 22.9505L38.3246 29.0935H35.6768L42.4185 9.57117H45.5082L52.2756 29.0935H49.5378L47.4179 22.9505H40.3844ZM46.89 20.9789L44.9504 15.3595C44.5084 14.0844 44.2166 12.9276 43.9205 11.7961H43.8647C43.5686 12.953 43.2467 14.1393 42.8648 15.3299L40.9251 20.9747L46.89 20.9789ZM54.284 19.649C54.284 17.8546 54.2282 16.4023 54.1638 15.0724H56.4897L56.6099 17.4789H56.6657C57.7256 15.769 59.4035 14.7557 61.7294 14.7557C65.1753 14.7557 67.763 17.6224 67.763 21.8824C67.763 26.9234 64.6432 29.4101 61.2874 29.4101C59.4035 29.4101 57.7557 28.5995 56.9017 27.2105H56.8459V34.8269H54.284V19.649ZM56.8416 23.3854C56.8416 23.7654 56.8974 24.1074 56.9618 24.4282C57.4338 26.193 58.9916 27.4131 60.8497 27.4131C63.5876 27.4131 65.1796 25.2135 65.1796 21.9964C65.1796 19.1846 63.6777 16.7865 60.9398 16.7865C59.1761 16.7865 57.5282 18.032 57.0218 19.9445C56.9317 20.2612 56.8459 20.6411 56.8459 20.9873L56.8416 23.3854ZM70.4408 19.649C70.4408 17.8546 70.385 16.4023 70.3206 15.0724H72.6465L72.7667 17.4789H72.8225C73.8824 15.769 75.5603 14.7557 77.8862 14.7557C81.3321 14.7557 83.9198 17.6224 83.9198 21.8824C83.9198 26.9234 80.8 29.4101 77.4442 29.4101C75.5603 29.4101 73.9125 28.5995 73.0585 27.2105H73.0027V34.8269H70.4408V19.649ZM73.0027 23.3854C73.0027 23.7654 73.0585 24.1074 73.1229 24.4282C73.5949 26.193 75.1526 27.4131 77.0108 27.4131C79.7486 27.4131 81.3407 25.2135 81.3407 21.9964C81.3407 19.1846 79.8388 16.7865 77.1009 16.7865C75.3372 16.7865 73.6893 18.032 73.1829 19.9445C73.0928 20.2612 73.007 20.6411 73.007 20.9873L73.0027 23.3854ZM86.6019 8.52835H89.1938V29.0893H86.6019V8.52835ZM94.4035 22.5452C94.4593 25.9903 96.6993 27.4131 99.287 27.4131C101.141 27.4131 102.261 27.0965 103.231 26.6912L103.673 28.5151C102.763 28.9204 101.201 29.3848 98.9351 29.3848C94.5494 29.3848 91.9274 26.5476 91.9274 22.3172C91.9274 18.0869 94.4593 14.7557 98.609 14.7557C103.261 14.7557 104.497 18.7793 104.497 21.3589C104.497 21.8824 104.441 22.2835 104.407 22.5452H94.4035ZM101.999 20.7214C102.029 19.1001 101.321 16.5796 98.4073 16.5796C95.7853 16.5796 94.6395 18.9566 94.4335 20.7214H101.999Z" fill="#9CA3AF"/>
</svg>
