<svg width="96" height="22" viewBox="0 0 96 22" fill="none" xmlns="http://www.w3.org/2000/svg">
<path d="M15.6744 19.3502C11.211 19.3502 7.59372 15.6117 7.59372 11.0004C7.59372 6.3888 11.211 2.65394 15.6744 2.65394C17.2476 2.65394 18.7164 3.1174 19.9572 3.92075L15.6744 11.0004L23.7372 6.19146C22.8612 4.74975 21.6048 3.50748 20.0856 2.56481C18.1524 1.36928 15.4632 0.629395 12.4896 0.629395C8.24784 0.629395 4.52652 2.22159 2.45124 4.60597C0.91476 6.36859 0 8.587 0 11.0003C0 13.4153 0.91476 15.6353 2.45124 17.3991C4.53192 19.7865 8.1978 21.3694 12.3696 21.3694C16.5408 21.3694 20.2056 19.7853 22.2876 17.3991C22.4016 17.2677 22.512 17.1351 22.6164 16.9975L22.302 15.7803C20.8392 17.9371 18.4164 19.3502 15.6744 19.3502Z" fill="#9CA3AF"/>
<path d="M42.4056 20.8674L39.0216 7.82741C38.478 5.72019 36.6204 4.17138 34.4088 4.17138C33.8352 4.17138 33.2856 4.27724 32.7756 4.46887L25.4904 7.20528H32.9832L34.2636 12.1446C33.0216 11.0404 31.404 10.3686 29.6328 10.3686C26.1156 10.3686 23.268 12.8032 23.268 15.8063C23.268 18.8097 26.1156 21.2479 29.6328 21.2479C32.1648 21.2479 34.404 19.9675 35.7852 18.0003L36.528 20.8674H42.4056ZM32.0832 18.842C30.4608 18.842 29.1456 17.4847 29.1456 15.8063C29.1456 14.1305 30.4608 12.7719 32.0832 12.7719C33.7056 12.7719 35.022 14.1305 35.022 15.8063C35.022 17.4847 33.7056 18.842 32.0832 18.842Z" fill="#9CA3AF"/>
<path d="M56.2032 4.17361C55.7592 4.17361 55.3392 4.27501 54.9648 4.4566L50.2872 6.70835C50.0556 5.26999 48.846 4.17361 47.3868 4.17361C46.9452 4.17361 46.524 4.27501 46.1448 4.4566L40.434 7.20528H44.4492V20.8675H50.3268V8.72521C50.3268 7.8874 50.9832 7.20541 51.7968 7.20541C52.6056 7.20541 53.2668 7.8874 53.2668 8.72521V20.8675H59.142V7.20528C59.142 5.5298 57.8256 4.17361 56.2032 4.17361Z" fill="#9CA3AF"/>
<path d="M93.0624 4.17361C92.6172 4.17361 92.1948 4.27501 91.8144 4.4566L87.1416 6.70835C86.9112 5.26999 85.7016 4.17361 84.2424 4.17361C83.8008 4.17361 83.3796 4.27501 82.9992 4.4566L77.2908 7.20528H81.3048V20.8675H87.1812V8.72521C87.1812 7.8874 87.8388 7.20541 88.6524 7.20541C89.4636 7.20541 90.12 7.8874 90.12 8.72521V20.8675H96V7.20528C96 5.5298 94.6824 4.17361 93.0624 4.17361Z" fill="#9CA3AF"/>
<path d="M78.2412 12.7718C78.2412 17.5206 74.5152 21.3694 69.9192 21.3694C65.3196 21.3694 61.5912 17.5206 61.5912 12.7718C61.5912 8.02425 65.3196 4.17361 69.9192 4.17361C74.5152 4.17361 78.2412 8.02437 78.2412 12.7718ZM70.2636 6.7831C70.002 5.77138 68.9952 5.17082 68.016 5.44278C67.038 5.71362 66.4536 6.75421 66.7164 7.7658L69.5712 18.7602C69.8352 19.7729 70.8396 20.3728 71.8188 20.1051C72.798 19.8311 73.38 18.7911 73.1172 17.7797L70.2636 6.7831Z" fill="#9CA3AF"/>
</svg>
