<svg width="141" height="13" viewBox="0 0 141 13" fill="none" xmlns="http://www.w3.org/2000/svg">
<path fill-rule="evenodd" clip-rule="evenodd" d="M0.694946 12.3327L4.10493 0.483489H9.97742L11.4604 5.54681L15.7207 0.459661H21.9537L18.7099 12.3217L13.9996 12.3386L15.7207 6.21895L10.2544 12.3386H7.93862L6.25161 5.79204L4.35566 12.3386L0.694946 12.3327ZM42.1784 0.45768L56.6473 0.483489L55.7786 4.30978H50.8108L48.7701 12.3327L44.191 12.3386L46.0947 4.34353H41.2047L42.1784 0.45768ZM80.9856 0.479527V3.23456H80.9934L80.4298 5.52696H85.3898C85.3898 5.52696 86.5948 5.3135 86.6638 4.19063C86.7211 3.19683 85.8154 3.26633 85.8154 3.26633L80.9866 3.24846V0.482489L88.4587 0.478527C88.4587 0.478527 91.6568 0.725736 91.3458 3.55325C91.0252 6.37878 88.0855 7.28025 88.0855 7.28025C88.0855 7.28025 87.9067 7.46095 88.0457 7.56718C88.1846 7.67142 89.2828 7.88289 89.4217 8.94024C89.5607 9.99956 89.0612 10.77 89.0612 11.0907C89.0612 11.4054 89.0932 12.0408 89.4868 12.3217H84.7649C84.7649 12.3217 83.9224 12.1897 83.9943 11.3011C84.0643 10.4225 84.1041 9.64909 84.1041 9.64909C84.1041 9.64909 84.0341 8.72678 82.7679 8.83698L79.3152 8.80223L78.3317 12.3337H74.0005L77.2977 0.480508L80.9856 0.479527ZM113.781 0.479527H118.213L116.066 9.07624H123.358L122.512 12.3426H110.753L113.781 0.479527ZM137.527 0.469585L140.186 12.3386H135.576L135.088 10.2815L135.071 10.2418H129.485L129.466 10.2597L128.117 12.3327L124.213 12.3386L132.097 0.469585L133.624 3.96824L131.338 7.42719L131.404 7.45201H134.367L134.42 7.44606L133.624 3.96824L132.097 0.469585H137.527ZM32.2837 3.10649C33.6899 3.10649 35.0747 3.81735 35.2934 4.84888C35.961 8.14798 32.517 9.56074 32.9212 9.35324C30.9398 10.357 27.9292 10.0353 27.5755 7.95536C27.2402 5.95585 28.7513 3.98711 30.0234 3.51751C30.8941 3.19683 31.6122 3.06082 32.2837 3.10649L32.2935 3.07573L32.31 0C31.3994 0.0188634 30.3742 0.13401 29.5657 0.295838C26.0935 0.975912 21.7175 4.19858 22.4882 8.27803C23.1373 11.7261 27.7154 13.5766 32.8484 12.563C37.6616 11.6188 40.8131 7.83225 40.1358 4.47358C39.4847 1.22412 35.7171 0 32.31 0V2.65973L32.2837 3.10649ZM65.9366 3.10649C67.3408 3.10649 68.7305 3.81735 68.9365 4.84888C69.6168 8.14798 66.1689 9.56074 66.5799 9.35324C64.5955 10.357 61.5821 10.0353 61.2312 7.95536C60.8911 5.95585 62.4032 3.98711 63.6782 3.51751C64.546 3.19683 65.2738 3.06082 65.9366 3.10649L65.9463 3.07573L65.9658 0C65.0427 0.0227072 64.123 0.12163 63.2156 0.295838C59.7463 0.975912 55.3636 4.19858 56.1342 8.27803C56.7824 11.7261 61.3721 13.5766 66.4964 12.563C71.3145 11.6188 74.4708 7.83225 73.7906 4.47358C73.1375 1.22412 69.3709 0 65.9648 0V2.65973L65.9366 3.10649ZM102.522 3.07573C103.927 3.15515 105.303 3.81735 105.517 4.84888C106.189 8.14798 102.744 9.56074 103.158 9.35324C101.173 10.357 98.16 10.0353 97.8072 7.95536C97.469 5.95585 98.9763 3.98711 100.254 3.51751C101.3 3.12932 101.708 3.02112 102.522 3.07573L102.542 0C101.619 0.0231807 100.699 0.1221 99.7916 0.295838C96.3282 0.975912 91.9493 4.19858 92.7161 8.27803C93.3652 11.7261 97.9511 13.5766 103.079 12.563C107.892 11.6188 111.049 7.83225 110.364 4.47358C109.715 1.22412 105.947 0 102.542 0V2.65973L102.522 3.07573Z" fill="#9CA3AF"/>
</svg>
