<svg width="105" height="16" viewBox="0 0 105 16" fill="none" xmlns="http://www.w3.org/2000/svg">
<path d="M10.0736 1.23568C9.27717 0.443022 7.96648 0.0386151 6.19919 0C3.49254 0 1.69691 1.20002 1.01692 2.26355C0.854074 2.59935 0.739898 2.95654 0.677812 3.32441C0.556804 4.06652 0.568762 4.65347 0.714395 5.34293C1.36658 8.41037 6.66352 9.29642 7.42123 11.1935C7.55561 11.5291 7.52325 11.9679 7.44938 12.2656C7.29038 12.9129 6.83026 13.2295 6.0423 13.2295C5.21071 13.2295 4.60004 12.7669 4.60004 11.9286L4.59793 10.4373H0.502631L0.499817 11.6344C0.499817 14.1647 2.07715 16 5.95998 16C8.74177 16 10.927 15.0423 11.2808 12.5604C11.4539 11.3479 11.3442 10.5005 11.2633 10.1045C10.6463 7.02725 4.97362 5.99166 4.56486 4.32419C4.50679 4.07433 4.50152 3.81513 4.54939 3.56312C4.6922 2.92562 5.13473 2.60196 5.85304 2.60196C6.70784 2.60196 7.19047 3.09974 7.19047 3.90294V4.86691H11.0107V3.77516C11.0107 2.71149 10.6962 1.85774 10.0736 1.23568Z" fill="#9CA3AF"/>
<path d="M99.5236 15.7086C99.6995 15.7086 99.8641 15.6904 100.034 15.682C100.928 15.6375 103.179 15.2703 104.168 13.8249C104.522 13.3089 104.747 12.7051 104.811 11.9918C104.858 11.4862 104.862 11.2833 104.863 11.0088V6.97459H99.4948V9.24236H101.013V11.3479C101.014 11.501 101.01 11.72 100.977 11.904C100.96 12.0107 100.765 12.9473 99.5109 12.9473C98.2474 12.9473 98.0525 12.0107 98.0335 11.904C98.0096 11.7685 97.9976 11.5838 98.0011 11.3479V4.55237C98.0011 4.27855 98.0201 4.03142 98.0602 3.85941C98.1306 3.54627 98.412 2.8175 99.4976 2.8175C100.597 2.8175 100.865 3.54487 100.928 3.8587C100.97 4.06442 100.976 4.3937 100.976 4.41266V5.29378H104.834V4.70332L104.834 4.6849C104.835 4.5334 104.837 4.13955 104.799 3.76954C104.498 0.694371 101.759 0.0547632 99.525 0.0547632C96.6384 0.0547632 94.5559 1.13879 94.24 3.76743C94.2098 4.01176 94.1781 4.48497 94.1781 4.75457L94.1767 11.0074C94.1781 11.2897 94.1859 11.4968 94.2295 11.9918C94.4764 14.7117 96.8572 15.7086 99.5236 15.7086Z" fill="#9CA3AF"/>
<path d="M19.8823 2.16666L21.8367 15.4194H25.9334L23.1798 0.452851H16.4589L13.6884 15.4194H17.8076L19.812 2.16666H19.8823Z" fill="#9CA3AF"/>
<path d="M41.559 2.42292L41.6498 15.4194H45.4679L45.1372 0.452851H38.9785L37.1795 11.5705H37.0916L35.2976 0.452851H29.136L28.8039 15.4194H32.6347L32.7226 2.42292H32.7915L35.2033 15.4194H39.0692L41.4929 2.42292H41.559Z" fill="#9CA3AF"/>
<path d="M54.4197 15.9249C56.4312 15.9249 59.277 15.418 59.6892 12.519C59.8602 11.3114 59.7512 10.4766 59.6717 10.0877C59.0561 7.03919 53.4334 6.02466 53.0281 4.36491C52.9695 4.11805 52.9633 3.86168 53.0098 3.61227C53.1534 2.98109 53.591 2.66023 54.3142 2.66023C55.1296 2.66023 55.6369 3.13204 55.6369 3.94787V4.90061H59.4205V3.82079C59.4205 2.76835 59.1081 1.92233 58.4911 1.30589C57.6638 0.480233 56.2841 0.0674023 54.3888 0.0674023C52.2697 0.0674023 49.6371 0.636098 49.1924 3.37356C49.0721 4.10795 49.0827 4.68928 49.229 5.37382C49.8678 8.39352 55.1233 9.30554 55.869 11.1668C55.9985 11.4954 55.9682 11.9307 55.8951 12.2291C55.7368 12.8694 55.2809 13.1811 54.5028 13.1811C53.6304 13.1811 53.0654 12.6917 53.0654 11.8921L53.0626 10.4191H49.0166L49.0145 11.6014C49.0145 14.5003 51.08 15.9249 54.4197 15.9249Z" fill="#9CA3AF"/>
<path d="M73.665 12.1448C73.6805 12.0009 73.708 11.4399 73.7023 11.1591V0.449341H69.8462V11.4989C69.8462 11.7369 69.8329 11.9286 69.8111 12.0592C69.7597 12.3014 69.5149 13.0997 68.4258 13.0997C67.3332 13.0997 67.0884 12.3021 67.0405 12.0563C67.0159 11.9293 67.0032 11.7467 67.0075 11.4996V0.449341H63.1366V11.1619C63.1354 11.4899 63.1479 11.8178 63.1739 12.1448C63.4032 14.6106 65.1719 15.8638 68.4258 15.8638C71.667 15.8638 73.4343 14.6106 73.665 12.1448Z" fill="#9CA3AF"/>
<path d="M84.9934 15.267H90.3797V0.452851H86.5982L86.7959 11.8408H86.7178L83.376 0.452851H77.7639V15.267H81.5179L81.3174 3.41217H81.3779L84.9934 15.267Z" fill="#9CA3AF"/>
</svg>
